<svg width="369" height="369" viewBox="0 0 369 369" fill="none" xmlns="http://www.w3.org/2000/svg">
<g filter="url(#filter0_d_83_1333)">
<path d="M180.389 338.418C267.639 338.418 338.368 267.716 338.368 180.5C338.368 93.2842 267.639 22.5818 180.389 22.5818C93.1394 22.5818 22.4097 93.2842 22.4097 180.5C22.4097 267.716 93.1394 338.418 180.389 338.418Z" fill="#1D1E1D"/>
<path d="M348.052 162.952C339.271 78.1388 267.564 12 180.389 12C93.2144 12 21.5155 78.1388 12.7344 162.952H348.052Z" fill="#C5312A"/>
<path d="M12.7344 198.047C21.5155 282.86 93.2225 348.999 180.389 348.999C267.556 348.999 339.271 282.86 348.044 198.047H12.7344V198.047Z" fill="#E7E7E9"/>
<path d="M180.388 233.593C209.722 233.593 233.502 209.822 233.502 180.5C233.502 151.178 209.722 127.407 180.388 127.407C151.054 127.407 127.274 151.178 127.274 180.5C127.274 209.822 151.054 233.593 180.388 233.593Z" fill="#1D1E1D"/>
<path d="M218.964 195.841C227.437 174.554 217.042 150.431 195.746 141.962C174.451 133.492 150.319 143.883 141.846 165.17C133.373 186.457 143.768 210.58 165.064 219.049C186.359 227.519 210.491 217.128 218.964 195.841Z" fill="#F7F7F7"/>
<path d="M180.391 208.485C195.852 208.485 208.386 195.956 208.386 180.501C208.386 165.046 195.852 152.517 180.391 152.517C164.93 152.517 152.396 165.046 152.396 180.501C152.396 195.956 164.93 208.485 180.391 208.485Z" fill="#B8B5B5"/>
<path d="M180.391 206.424C194.713 206.424 206.323 194.818 206.323 180.502C206.323 166.185 194.713 154.579 180.391 154.579C166.069 154.579 154.458 166.185 154.458 180.502C154.458 194.818 166.069 206.424 180.391 206.424Z" fill="#F7F7F7"/>
</g>
<defs>
<filter id="filter0_d_83_1333" x="0.734375" y="0" width="367.317" height="368.999" filterUnits="userSpaceOnUse" color-interpolation-filters="sRGB">
<feFlood flood-opacity="0" result="BackgroundImageFix"/>
<feColorMatrix in="SourceAlpha" type="matrix" values="0 0 0 0 0 0 0 0 0 0 0 0 0 0 0 0 0 0 127 0" result="hardAlpha"/>
<feOffset dx="4" dy="4"/>
<feGaussianBlur stdDeviation="8"/>
<feColorMatrix type="matrix" values="0 0 0 0 0.00392157 0 0 0 0 0.109804 0 0 0 0 0.25098 0 0 0 0.2 0"/>
<feBlend mode="normal" in2="BackgroundImageFix" result="effect1_dropShadow_83_1333"/>
<feBlend mode="normal" in="SourceGraphic" in2="effect1_dropShadow_83_1333" result="shape"/>
</filter>
</defs>
</svg>
